<?xml version="1.0" encoding="utf-8"?>
<!-- Generator: Adobe Illustrator 23.0.5, SVG Export Plug-In . SVG Version: 6.00 Build 0)  -->
<svg version="1.1" xmlns="http://www.w3.org/2000/svg" xmlns:xlink="http://www.w3.org/1999/xlink" x="0px" y="0px"
	 viewBox="0 0 512 512" style="enable-background:new 0 0 512 512;" xml:space="preserve">
<style type="text/css">
	.st0{fill:none;stroke:#000000;stroke-width:17;stroke-miterlimit:10;}
</style>
<g id="eyes">
	<g>
		
			<ellipse transform="matrix(0.4716 -0.8818 0.8818 0.4716 -198.9634 366.9798)" class="st0" cx="206.7" cy="349.5" rx="36.5" ry="21.1"/>
		<path d="M174.7,315.4c-3.2-5.9-13-6.7-22.1-1.8c-9,4.9-13.8,13.5-10.6,19.4c3.2,5.9,13,6.7,22.1,1.8
			C173.1,330,177.8,321.3,174.7,315.4z M168.5,315.6c3.3,3.1-1.6,8.3-4.9,5.1C160.3,317.6,165.2,312.5,168.5,315.6z M153.7,330.9
			c-2.3-2.2-2.2-5.8-0.2-8.1c2-2.3,5.9-2.3,8.1-0.2c2.3,2.2,2.2,5.8,0.2,8.1C159.7,333.1,155.8,333,153.7,330.9z"/>
		
			<ellipse transform="matrix(0.8586 -0.5126 0.5126 0.8586 -137.1235 131.8618)" class="st0" cx="170.5" cy="314.5" rx="36.5" ry="21.1"/>
		<path d="M187.8,358.4c-4.4,9.3-3.1,19.1,2.9,22c6,2.9,14.5-2.3,18.9-11.5c4.4-9.3,3.1-19.1-2.9-22S192.2,349.1,187.8,358.4z
			 M201.9,358.1c-3.3-3.1,1.6-8.3,4.9-5.1C210.1,356.1,205.2,361.3,201.9,358.1z M192,360.4c2.2-2.1,5.8-2.4,8.1-0.2
			c2.2,2.1,2.4,6,0.2,8.1c-2.2,2.1-5.8,2.4-8.1,0.2C190.1,366.5,189.8,362.6,192,360.4z"/>
		<path d="M197,249.9c1.3,2.5,2.6,3,4.1,4.8c1.6,2,1.9,3.7,3,10.6c1.8,11.2,1.7,11.4,2.4,13.8c0,0,1,4.1,4.3,10.6
			c0.8,1.6,1.9,3.6,4.1,4.7c0.7,0.3,2.2,1,3.9,0.6c0.5-0.1,1.6-0.4,2.2-1.3c1-1.6,0.2-4.2-1.2-4.9c-0.7-0.3-1,0-1.7-0.2
			c-1.5-0.4-2.2-2.4-3.2-5.4c-1.2-3.7-1.8-5.5-1.9-6.1c-1.7-7.9-1-9.8-2.6-16.2c-0.3-1.4-1.1-4.3-2.5-7.6c-1.4-3.2-2.2-5.1-4.1-7
			c-2.4-2.3-6.4-4.2-7.8-3C194.7,244.3,196,248,197,249.9z"/>
		<path d="M270.8,320.3c-2.6-1.2-3.1-2.5-5-3.9c-2-1.5-3.7-1.7-10.8-2.5c-11.2-1.3-11.5-1.2-13.9-1.7c0,0-4.1-0.8-10.8-3.8
			c-1.7-0.7-3.7-1.7-4.9-3.9c-0.4-0.7-1.1-2.1-0.7-3.9c0.1-0.5,0.3-1.7,1.2-2.3c1.6-1.1,4.2-0.4,5,0.9c0.4,0.6,0,1,0.3,1.7
			c0.5,1.5,2.5,2.1,5.6,2.9c3.7,1,5.6,1.5,6.2,1.6c8,1.4,9.8,0.5,16.3,1.8c1.4,0.3,4.3,0.9,7.8,2.2c3.2,1.2,5.2,2,7.1,3.8
			c2.4,2.3,4.5,6.2,3.3,7.6C276.4,322.3,272.7,321.2,270.8,320.3z"/>
	</g>
</g>
<g id="Layer_2">
	<g>
		<g>
			<path d="M125.7,426l-28.1-28.1c-3.9-3.9-10.2-3.9-14.1,0c-3.9,3.9-3.9,10.2,0,14.1l28.1,28.1c3.9,3.9,10.2,3.9,14.1,0
				C129.6,436.2,129.6,429.9,125.7,426z"/>
		</g>
	</g>
	<g>
		<g>
			<path d="M157.9,365.7c-11.6-11.6-30.5-11.6-42.2,0c-11.6,11.6-11.6,30.5,0,42.2c5.8,5.8,13.4,8.7,21.1,8.7
				c7.6,0,15.3-2.9,21.1-8.7C169.6,396.2,169.6,377.3,157.9,365.7z M143.9,393.8c-3.9,3.9-10.2,3.9-14.1,0c-3.9-3.9-3.9-10.2,0-14.1
				c3.9-3.9,10.2-3.9,14.1,0C147.8,383.6,147.8,389.9,143.9,393.8z"/>
		</g>
	</g>
	<g>
		<g>
			<path d="M507.1,99.3c-4.5-4.5-89.9-89.9-94.4-94.4c-6.5-6.5-17.1-6.5-23.6,0c-6.5,6.5-6.5,17.1,0,23.6l11.8,11.8l-23.6,23.6
				l-11.8-11.8c-6.5-6.5-17.1-6.5-23.6,0c-6.5,6.5-6.5,17.1,0,23.6l11.8,11.8L265,176.2c-52.1-22-106.8-4.3-128.1,41
				c-3.2,6.7-9.7,11-17.1,11.3c-32.9,1.1-62,13.4-83.9,35.3c-52,52-46.7,142,11.8,200.5c59.2,59.2,148.8,63.5,200.5,11.8
				c22-22,34.2-51,35.3-83.9c0.3-7.4,4.6-14,11.3-17.1c45.3-21.3,63-76.1,41-128.1c11.5-11.5,90.2-90.2,101.3-101.3l21.2,21.2
				c6.5,6.5,17.1,6.5,23.6,0c6.5-6.5,6.5-17.1,0-23.6L460.7,122l11-11l11.8,11.8c6.5,6.5,17.1,6.5,23.6,0
				C513.6,116.3,513.6,105.8,507.1,99.3z M280.6,344.8c-18.1,8.5-29.8,26.2-30.5,46.2c-0.8,24.3-9.7,45.6-25.6,61.5
				c-38.3,38.3-107,34.6-153.4-11.8c-45.5-45.5-50.8-114.3-11.8-153.4c15.9-15.9,37.1-24.7,61.5-25.6c20-0.7,37.7-12.4,46.2-30.5
				c12.4-26.4,42.1-36.1,71.6-28.9l-25.9,25.9c-6.5,6.5-6.5,17.1,0,23.6l47.2,47.2c6.5,6.5,17.1,6.5,23.6,0l25.9-25.9
				C317.1,303.9,306.1,332.9,280.6,344.8z M271.8,263.7l-23.6-23.6c5.6-5.6,98.2-98.2,105.5-105.5l23.6,23.6
				C370.1,165.5,275,260.6,271.8,263.7z M400.9,134.7l-23.6-23.6l47.2-47.2C440,79.4,436,75.4,448.1,87.5L400.9,134.7z"/>
		</g>
	</g>
</g>
</svg>
