<?xml version="1.0" encoding="utf-8"?>
<!-- Generator: Adobe Illustrator 23.0.5, SVG Export Plug-In . SVG Version: 6.00 Build 0)  -->
<svg version="1.1" id="Capa_1" xmlns="http://www.w3.org/2000/svg" xmlns:xlink="http://www.w3.org/1999/xlink" x="0px" y="0px"
	 viewBox="0 0 482 482" style="enable-background:new 0 0 482 482;" xml:space="preserve">
<style type="text/css">
	.st0{fill:none;stroke:#000000;stroke-width:5;stroke-miterlimit:10;}
</style>
<g>
	<g>
		<path d="M386.2,48.5L217.8,216.9c-7.6,1.9-15.1,1.5-20.3-3.7c-12.4-12.4,5.5-39.5,14.8-51.7c2.7-3.5,1.8-4.7-2.3-2.9l-36.8,17.1
			c-4,1.9-7.9,6.9-8.8,11.3c-2.9,13.4-9.8,40.2-20.3,50.6c-11.8,11.8-82.4,25.5-106.3,29.9c-4.4,0.8-7.9,5-8.3,9.4
			c-3,36.3-21,79-28.7,95.7c-1.9,4-0.3,5.6,3.8,3.7c52.7-24.4,89.8-12.4,98.4-3.9c7.4,7.4-14.8,78.2-22.4,101.8
			c-1.4,4.2,0.7,5.9,4.6,3.8l72.1-38.9c3.9-2.1,7.8-7.3,8.8-11.6c4.7-20.7,18.4-76.4,32.4-90.4c12.1-12.1,32.8-15.6,44.1-16.6
			c4.4-0.4,9.8-3.5,11.9-7.4l15-26.7c2.2-3.9,1.1-4.7-2.6-2.3c-11.3,7.3-34.7,19.2-50.5,3.5c-6.9-6.9-5.7-18.5-1-31l190-190
			c3.4-2.8,12-9,19.1-6.1c0,0,27.1-32.2,45.5-31.9c0,0,6.3-14.1,12-25.3l-94.5,21.2C387.6,24.3,395.5,36.9,386.2,48.5z M155.2,331
			l-9,9c-3.1,3.1-8.2,3.1-11.4,0l-24.1-24.1c-3.1-3.1-3.1-8.2,0-11.4l9-9c3.1-3.1,8.2-3.1,11.3,0l24.1,24.1
			C158.3,322.8,158.3,327.8,155.2,331z M191.6,283.2c3.1,3.1,3.1,8.2,0,11.3l-9,9c-3.1,3.1-18.8,21.1-21.9,18l-30.4-30.2
			c-3.1-3.1,13.6-20.1,16.8-23.2l9-9c3.1-3.1,8.2-3.1,11.4,0l4,4l18.6,18.6L191.6,283.2z"/>
	</g>
	<g>
		
			<ellipse transform="matrix(0.6369 -0.7709 0.7709 0.6369 -165.1702 229.0896)" class="st0" cx="160.6" cy="289.9" rx="14.8" ry="6.6"/>
		<path class="st0" d="M164.6,295.6c-6.3,5.2-9.7,8.9-7.5,11.8c2.3,2.9,9.3,1,15.7-4c6.4-5.1,9.7-11.5,7.4-14.4
			c-1.8-2.3-6-2.4-10.9,0.9C168.2,290.7,165.8,294.6,164.6,295.6z"/>
		<ellipse transform="matrix(0.6366 -0.7712 0.7712 0.6366 -171.9643 227.4923)" cx="155.4" cy="296.2" rx="3.7" ry="2.7"/>
		<ellipse transform="matrix(0.7609 -0.6488 0.6488 0.7609 -157.5376 178.2272)" cx="163.1" cy="302.9" rx="3.7" ry="2.7"/>
		<path d="M160.4,274.4C160.4,274.4,160.4,274.4,160.4,274.4c0,0,0.1-0.1,0.1-0.2c1.6-2.9,3.7-4.5,3.7-4.5c0.3-0.2,0.7-0.5,1.3-0.8
			c0.8-0.4,2.1-1.1,3.8-1c2,0.1,3.4,1.1,3.8,1.4c1.8,1.4,2.2,3.4,2.5,4.5c0.2,0.7,0.2,1.5,0.2,3.1c0,0.1,0,0.3,0,0.3
			c-0.1,0-0.3-1.6-0.7-2.8c-0.6-1.5-1.9-3.3-4-4.1c-2.2-0.9-4.2-0.2-5,0c-1.6,0.5-2.6,1.3-3.5,2c-1.1,0.9-1.9,1.8-2.4,2.5"/>
		<path d="M187.7,297.4C187.7,297.4,187.7,297.4,187.7,297.4c0,0,0.1-0.1,0.2-0.1c2.5-2.1,3.7-4.5,3.7-4.5c0.1-0.3,0.4-0.8,0.6-1.4
			c0.2-0.8,0.7-2.3,0.3-3.9c-0.5-2-1.8-3.2-2.1-3.5c-1.7-1.5-3.8-1.6-4.9-1.6c-0.7,0-1.5,0.1-3.1,0.4c-0.1,0-0.3,0-0.3,0.1
			c0,0.1,1.6,0,2.9,0.2c1.6,0.3,3.6,1.3,4.8,3.2c1.3,2,1,4.1,0.9,4.9c-0.2,1.6-0.8,2.8-1.3,3.8c-0.7,1.3-1.4,2.2-2,2.8"/>
		<path d="M135,302.2C135,302.2,135,302.2,135,302.2c0,0-0.1,0-0.1,0.1c-2.4,1.4-3.2,3.4-3.2,3.4c-0.1,0.3-0.3,0.7-0.4,1.3
			c-0.1,0.8-0.3,2.1,0.4,3.9c0.8,2.2,2.5,3.8,2.9,4.2c2.1,2.1,4.3,2.8,5.6,3.2c0.7,0.2,1.6,0.4,3.3,0.6c0.1,0,0.3,0,0.3,0
			c0-0.1-1.7-0.5-3.1-1.1c-1.7-0.8-4.1-2.4-5.7-4.7c-1.7-2.4-1.8-4.5-1.9-5.2c-0.1-1.6,0.4-2.6,0.8-3.4c0.5-1.1,1.2-1.8,1.7-2.2"/>
	</g>
</g>
</svg>
