<?xml version="1.0" encoding="utf-8"?>
<!-- Generator: Adobe Illustrator 23.0.5, SVG Export Plug-In . SVG Version: 6.00 Build 0)  -->
<svg version="1.1" id="Layer_1" xmlns="http://www.w3.org/2000/svg" xmlns:xlink="http://www.w3.org/1999/xlink" x="0px" y="0px"
	 viewBox="0 0 9936 2419.2" style="enable-background:new 0 0 9936 2419.2;" xml:space="preserve">
<style type="text/css">
	.st0{fill:none;stroke:#000000;stroke-width:17;stroke-miterlimit:10;}
</style>
<ellipse transform="matrix(9.613753e-02 -0.9954 0.9954 9.613753e-02 2941.8086 6511.8101)" class="st0" cx="5056.4" cy="1636.1" rx="40" ry="21.7"/>
<path d="M5117.2,1641.1c6.7-1.3,10.7-11.4,8.8-22.5c-1.9-11.1-8.9-19-15.6-17.7c-6.7,1.3-10.7,11.4-8.8,22.5
	C5103.4,1634.5,5110.5,1642.4,5117.2,1641.1z M5119,1634.6c-4.1,2.4-7.6-4.5-3.5-6.8C5119.6,1625.4,5123.1,1632.2,5119,1634.6z
	 M5108.7,1613.9c2.9-1.7,6.3-0.4,8,2.5c1.6,2.9,0.3,7-2.4,8.5c-2.9,1.7-6.3,0.4-8-2.5C5104.7,1619.5,5106,1615.5,5108.7,1613.9z"/>
<ellipse transform="matrix(0.9597 -0.2811 0.2811 0.9597 -252.2437 1504.4912)" class="st0" cx="5118.4" cy="1631.5" rx="21.8" ry="39.8"/>
<path d="M5068.3,1619.1c-1.1-11.2-7.5-19.7-14.3-18.9c-6.8,0.8-11.5,10.5-10.4,21.7c1.1,11.2,7.5,19.7,14.3,18.9
	C5064.7,1640,5069.4,1630.3,5068.3,1619.1z M5056,1627.5c4.6,1.1,3.1,8.7-1.5,7.6C5049.9,1634,5051.4,1626.4,5056,1627.5z
	 M5063.4,1619.6c-0.8,3.3-3.8,5.6-7,4.8c-3-0.7-5.3-4.2-4.5-7.5c0.8-3.3,3.8-5.6,7-4.8C5061.9,1612.8,5064.3,1616.3,5063.4,1619.6z"
	/>
<path d="M5150,1588.3c0,0-0.2-1-0.8-2.5c-2-5.5-8.3-18.2-26-21.7c-22.6-4.5-42.2,6.5-42.2,6.5l9.2,9.9c0,0,13.4-9.9,37.1,1.2"/>
<path d="M5008.8,1595.2c0,0,0.1-1,0.4-2.6c1.3-5.7,6-19.3,23.1-25.2c21.9-7.6,42.7,0.5,42.7,0.5l-7.9,11.1c0,0-14.5-7.9-36.6,6.4"/>
<g>
	<g>
		<path d="M4897.3,1687.1c-51.3,38.9-54.8,84.8-54.8,125.4c0,40.6,54.8,197.9,273.9,190.8c219.1-7,208.5-224.4,208.5-224.4
			s0.1-72.4-97.2-124.5c-86.2-46.1,138-233.5,44.2-269.5c-28.9-11.1-73.7,54.4-118.4,67.1v67.2h-124v-101.1
			c-5.8,1.1-12.2,1.9-19.2,2.2c-49.5,1.7-33.6-118.4-88.3-114.9c-54.8,3.6-28.3,143.2,0,226.2
			C4950.3,1614.7,4948.5,1648.3,4897.3,1687.1z M5217.1,1911.5c-10.3,0-18.5-8.3-18.5-18.5c0-10.3,8.3-18.6,18.5-18.6
			c10.3,0,18.5,8.3,18.5,18.6C5235.7,1903.2,5227.4,1911.5,5217.1,1911.5z M5254.3,1822.8c0,10.2-8.3,18.5-18.6,18.5
			c-10.2,0-18.5-8.3-18.5-18.5c0-10.2,8.3-18.5,18.5-18.5C5245.9,1804.2,5254.3,1812.5,5254.3,1822.8z M5209.2,1704.8
			c14.6,0,26.5,11.9,26.5,26.5c0,14.6-11.8,26.5-26.5,26.5c-14.7,0-26.5-11.9-26.5-26.5C5182.7,1716.7,5194.5,1704.8,5209.2,1704.8z
			 M5010,1548h144v161h-144V1548z M5010.4,1721.1h143.1v59.3h-143.1V1721.1z"/>
		<path d="M4999.6,633.6c-10.7,0-19.4,8.7-19.4,19.4c0,10.7,8.7,19.4,19.4,19.4c4.8,0,9.2-1.8,12.6-4.8l15.1,11.5l-16.8,22.1
			c0,0,21.4,21.5,35,46.3v754.2h92.2V756.5c6.6-10,15.3-18.5,26.5-19.8V625.3l32.9-65.8c5.2-10.5,2.6-25.5-5.8-33.6l-11.8-11.3
			c-8.4-8.1-21-7.1-28.2,2.2l-30.5,40l-17.9-14.1c0.5-1.7,0.8-3.5,0.8-5.3c0-10.7-8.7-19.4-19.4-19.4c-10.7,0-19.4,8.7-19.4,19.4
			c0,10.7,8.7,19.4,19.4,19.4c5,0,9.5-1.9,13-5l17.1,13.4l-25,32.7l-15.5-12.1c1-2.4,1.6-4.9,1.6-7.7c0-10.7-8.7-19.4-19.5-19.4
			c-10.7,0-19.4,8.7-19.4,19.4c0,10.7,8.7,19.4,19.4,19.4c4.2,0,8-1.3,11.1-3.5l15.7,12.4l-21.4,28.1l-15.2-11.9
			c0.6-1.8,0.9-3.6,0.9-5.6c0-10.7-8.7-19.4-19.4-19.4c-10.7,0-19.4,8.7-19.4,19.4c0,10.7,8.7,19.4,19.4,19.4
			c4.9,0,9.4-1.9,12.8-4.9l14.5,11.4l-21.4,28.1l-15.7-12c0.6-1.8,1-3.8,1-5.8C5019,642.3,5010.3,633.6,4999.6,633.6z M4999.6,661.9
			c-4.8,0-8.8-4-8.8-8.8c0-4.9,4-8.9,8.8-8.9c4.9,0,8.8,4,8.8,8.9C5008.4,657.9,5004.4,661.9,4999.6,661.9z M5084.2,546.1
			c-4.9,0-8.8-4-8.8-8.8c0-4.8,4-8.8,8.8-8.8c4.9,0,8.9,4,8.9,8.8C5093.1,542.2,5089.1,546.1,5084.2,546.1z M5056.1,586.8
			c-4.8,0-8.8-4-8.8-8.8c0-4.9,4-8.8,8.8-8.8c4.9,0,8.9,4,8.9,8.8C5064.9,582.8,5061,586.8,5056.1,586.8z M5027.8,625.6
			c-4.8,0-8.8-3.9-8.8-8.8c0-4.8,4-8.8,8.8-8.8c4.9,0,8.9,4,8.9,8.8C5036.7,621.7,5032.7,625.6,5027.8,625.6z M5150.8,571
			c7.8,0,14.1,6.3,14.1,14.1c0,7.8-6.3,14.1-14.1,14.1c-7.8,0-14.1-6.3-14.1-14.1C5136.7,577.3,5143,571,5150.8,571z M5122.7,611.6
			c7.8,0,14.1,6.3,14.1,14.1c0,7.8-6.3,14.1-14.1,14.1c-7.8,0-14.1-6.3-14.1-14.1C5108.5,617.9,5114.9,611.6,5122.7,611.6z
			 M5094.4,650.5c7.8,0,14.1,6.3,14.1,14.1c0,7.8-6.3,14.1-14.1,14.1c-7.8,0-14.1-6.3-14.1-14.1
			C5080.2,656.8,5086.6,650.5,5094.4,650.5z M5066.1,686.7c7.8,0,14.1,6.3,14.1,14.1c0,7.8-6.3,14.1-14.1,14.1
			c-7.8,0-14.1-6.3-14.1-14.1C5052,693,5058.3,686.7,5066.1,686.7z"/>
	</g>
</g>
</svg>
