<?xml version="1.0" encoding="utf-8"?>
<!-- Generator: Adobe Illustrator 23.0.5, SVG Export Plug-In . SVG Version: 6.00 Build 0)  -->
<svg version="1.1" id="Capa_1" xmlns="http://www.w3.org/2000/svg" xmlns:xlink="http://www.w3.org/1999/xlink" x="0px" y="0px"
	 viewBox="0 0 470 470" style="enable-background:new 0 0 470 470;" xml:space="preserve">
<style type="text/css">
	.st0{fill:none;stroke:#000000;stroke-width:17;stroke-miterlimit:10;}
</style>
<g>
	<path d="M467.8,142.6L327.4,2.2c-2-2-5-2.7-7.7-1.8c-2.7,0.9-4.7,3.2-5.1,6.1l-18.5,130.1l-74.6,74.6l-15.9-15.9l6.3-6.3
		c2.9-2.9,2.9-7.7,0-10.6c-2.9-2.9-7.7-2.9-10.6,0L189.8,190c0,0-11.6,11.6-11.6,11.6c-2.9,2.9-2.9,7.7,0,10.6
		c1.5,1.5,3.4,2.2,5.3,2.2s3.8-0.7,5.3-2.2l6.3-6.3l15.9,15.9l-38.3,38.3l-15.9-15.9l6.3-6.3c2.9-2.9,2.9-7.7,0-10.6
		c-2.9-2.9-7.7-2.9-10.6,0l-23.1,23.1c-2.9,2.9-2.9,7.7,0,10.6c1.5,1.5,3.4,2.2,5.3,2.2s3.8-0.7,5.3-2.2l6.3-6.3l15.9,15.9
		l-38.3,38.3l-15.9-15.9l6.3-6.3c2.9-2.9,2.9-7.7,0-10.6c-2.9-2.9-7.7-2.9-10.6,0l-23.1,23.1c-2.9,2.9-2.9,7.7,0,10.6
		c1.5,1.5,3.4,2.2,5.3,2.2s3.8-0.7,5.3-2.2l6.3-6.3l15.9,15.9l-68.5,68.5c0,0-30.1,30.1-30.1,30.1l-1.8-1.8c-2.9-2.9-7.7-2.9-10.6,0
		c-2.9,2.9-2.9,7.7,0,10.6l7.1,7.1c0,0,26.7,26.7,26.7,26.7c0,0,7.1,7.1,7.1,7.1c1.5,1.5,3.4,2.2,5.3,2.2s3.8-0.7,5.3-2.2
		c2.9-2.9,2.9-7.7,0-10.6l-1.8-1.8l48.9-48.9c4.4,10.9,10.9,20.9,19.3,29.3c16.4,16.4,38.3,25.5,61.6,25.5s45.1-9.1,61.6-25.5
		l94.6-94.6c16.4-16.4,25.5-38.3,25.5-61.6s-9.1-45.1-25.5-61.6c-10.7-10.7-23.6-18-37.2-22c-13.3-3.8-27.3-4.5-40.8-1.9l48.7-48.7
		c1.1-1.1,1.9-2.6,2.1-4.2l16.7-117.8l119.2,119.2l-117.8,16.7c-1.6,0.2-3.1,1-4.2,2.1l-11.8,11.8c-2.9,2.9-2.9,7.7,0,10.6
		c2.9,2.9,7.7,2.9,10.6,0l10.1-10.1l130.1-18.5c2.8-0.4,5.2-2.4,6.1-5.1C470.5,147.6,469.8,144.6,467.8,142.6z M181.6,446.3
		c-19.2,0-37.3-7.5-51-21.1c-8.5-8.5-14.7-19-18.1-30.5l19.8-19.8c0.2,12.4,5,24.7,14.4,34.2c19.2,19.2,50.6,19.2,69.8,0l94.6-94.6
		c19.2-19.2,19.2-50.6,0-69.8c-19.2-19.2-50.6-19.2-69.8,0l-94.6,94.6c0,0-70.1,70.1-70.1,70.1l-16.1-16.1l164.7-164.7
		c28.1-28.1,73.8-28.1,101.9,0c13.6,13.6,21.1,31.7,21.1,51s-7.5,37.3-21.1,51l-94.6,94.6C219,438.8,200.9,446.3,181.6,446.3z
		 M25.2,428.8L49.9,404L66,420.1l-24.7,24.7L25.2,428.8z M157.3,349.9l94.6-94.6c13.4-13.4,35.2-13.4,48.6,0
		c13.4,13.4,13.4,35.2,0,48.6l-94.6,94.6c-13.4,13.4-35.2,13.4-48.6,0C143.9,385.1,143.9,363.3,157.3,349.9z"/>
</g>
<g>
	
		<ellipse transform="matrix(0.8076 -0.5898 0.5898 0.8076 -160.5814 188.0766)" class="st0" cx="207.9" cy="340.1" rx="20" ry="36.8"/>
	<path d="M252.7,306.4c3.8-5,0.4-14.3-7.7-20.8c-8.1-6.5-17.7-7.6-21.6-2.6c-3.8,5-0.4,14.3,7.7,20.8
		C239.2,310.3,248.9,311.5,252.7,306.4z M249.9,300.9c-1.4,4.2-7.9,1.6-6.6-2.6C244.7,294.1,251.3,296.7,249.9,300.9z M230.2,293
		c1-2.9,4.1-4.1,7-3.1c2.9,1,4.5,4.6,3.6,7.3c-1,2.9-4.1,4.1-7,3.1C230.9,299.3,229.3,295.7,230.2,293z"/>
	
		<ellipse transform="matrix(0.5302 -0.8479 0.8479 0.5302 -137.2934 350.5451)" class="st0" cx="247.7" cy="299.2" rx="20.1" ry="36.6"/>
	<path d="M205.7,321.2c-7.6-7-17.2-8.9-21.4-4.2s-1.5,14.2,6.1,21.2c7.6,7,17.2,8.9,21.4,4.2S213.3,328.2,205.7,321.2z M202.4,334.4
		c3.8-2.1,7.4,4.1,3.6,6.1C202.2,342.7,198.6,336.5,202.4,334.4z M202.7,324.5c1.5,2.8,0.8,6.1-1.9,7.6c-2.5,1.4-6.2,0.4-7.7-2.4
		c-1.5-2.8-0.8-6.1,1.9-7.6C197.5,320.8,201.2,321.8,202.7,324.5z"/>
	<path d="M232,237.8c0,0,0.5,0.8,1.1,2.3c2.2,5.2,6,18.3-3.8,31.6c-12.7,17-33.2,21.1-33.2,21.1l0-12.8c0,0,15.5-1.1,24.7-23.5"/>
	<path d="M130.6,319c0,0,0.7,0.7,2,1.6c4.5,3.4,16.5,10.3,32,4.1c19.9-7.9,29-26.4,29-26.4l-12.6-3.2c0,0-4.9,14.6-29.2,17.7"/>
</g>
</svg>
