<?xml version="1.0" encoding="utf-8"?>
<!-- Generator: Adobe Illustrator 23.0.5, SVG Export Plug-In . SVG Version: 6.00 Build 0)  -->
<svg version="1.1" id="Layer_1" xmlns="http://www.w3.org/2000/svg" xmlns:xlink="http://www.w3.org/1999/xlink" x="0px" y="0px"
	 viewBox="0 0 463 463" style="enable-background:new 0 0 463 463;" xml:space="preserve">
<style type="text/css">
	.st0{fill:none;stroke:#000000;stroke-width:17;stroke-miterlimit:10;}
</style>
<path d="M439.5,104L439.5,104c-13,0-23.5,10.5-23.5,23.5v4.1c-57.3,40.3-122,64.8-193,73.2v-15c9.3-3.1,16-11.9,16-22.3
	c0-13-10.5-23.5-23.5-23.5S192,154.5,192,167.5c0,10.3,6.7,19.1,16,22.3v16.5c-12.9,1.1-26.1,1.7-39.4,1.7c-1.3,0.4-2.7,0.6-4.2,0.6
	c-0.1,0-0.2,0-0.3,0c-0.1,0-0.3,0-0.4,0c-1.1,0-2.2-0.1-3.1-0.3c-0.8,0-1.6-0.1-2.3-0.2c0,0,0,0-0.1,0c-0.3,0-0.7,0-1,0
	c-0.8,0-1.6-0.1-2.3-0.2c-0.6,0-1.2-0.1-1.8-0.2c-0.3,0-0.6,0-1,0c-0.1,0-0.1,0-0.2,0v0.1c-14.4-0.2-28.1-0.8-41-1.7v-16.4
	c9.3-3.1,16-11.9,16-22.3c0-13-10.5-23.5-23.5-23.5S80,154.5,80,167.5c0,10.3,6.7,19.1,16,22.3v15.1c-19.7-1.9-37-4.6-51.6-8.2
	c-3.9-7.5-11.8-12.7-20.9-12.7C10.5,184,0,194.5,0,207.5v48c0,13,10.5,23.5,23.5,23.5c9.1,0,17-5.2,20.9-12.7
	c10.5-2.6,22.4-4.7,35.6-6.4v27.6c0,13,10.5,23.5,23.5,23.5h112c13,0,23.5-10.5,23.5-23.5v-27.1c64.7,10,124,33.7,177,71v4.1
	c0,13,10.5,23.5,23.5,23.5s23.5-10.5,23.5-23.5v-208C463,114.5,452.5,104,439.5,104z M32,255.5c0,4.7-3.8,8.5-8.5,8.5
	s-8.5-3.8-8.5-8.5v-48c0-4.7,3.8-8.5,8.5-8.5s8.5,3.8,8.5,8.5V255.5z M207,167.5c0-4.7,3.8-8.5,8.5-8.5s8.5,3.8,8.5,8.5
	s-3.8,8.5-8.5,8.5S207,172.2,207,167.5z M95,167.5c0-4.7,3.8-8.5,8.5-8.5s8.5,3.8,8.5,8.5s-3.8,8.5-8.5,8.5S95,172.2,95,167.5z
	 M224,287.5c0,4.7-3.8,8.5-8.5,8.5h-112c-4.7,0-8.5-3.8-8.5-8.5v-29.3c21.4-2.1,45.6-3.2,71.9-3.2c19.4,0,38.5,1.1,57.1,3.4V287.5z
	 M416,313.2C343.3,264.6,259.6,240,166.9,240c-47.9,0-89.1,3.5-119.9,10.3v-37.6c29.1,6.4,67.4,9.9,111.8,10.2c0.2,0,0.5,0,0.8,0
	c0.2,0,0.4,0,0.5,0c2.3,0,4.6,0,6.9,0c92.7,0,176.4-24.6,249.1-73.2V313.2z M448,335.5c0,4.7-3.8,8.5-8.5,8.5s-8.5-3.8-8.5-8.5v-208
	c0-4.7,3.8-8.5,8.5-8.5s8.5,3.8,8.5,8.5V335.5z"/>
<path class="st0" d="M160.3,261.5c-23.8,0-51.1-4.3-50.5,8.7c0.5,11.1,23.8,20,52.1,20s50.9-9.1,50.4-20.2
	C211.8,259,225.9,261.4,160.3,261.5z"/>
<path d="M264.3,131.4c0,0-0.4,0.9-1.3,2.2c-3.1,4.7-11.8,15.2-28.3,14.4c-21.2-1-36-15.8-36-15.8l10.6-7.2c0,0,9.5,12.3,33.3,7.4"/>
<path d="M54.8,142.8c0,0,0.7,0.7,2,1.6c4.5,3.4,16.5,10.3,32,4.1c19.9-7.9,29-26.4,29-26.4l-12.6-3.2c0,0-4.9,14.6-29.2,17.7"/>
</svg>
