<?xml version="1.0" encoding="utf-8"?>
<!-- Generator: Adobe Illustrator 23.0.5, SVG Export Plug-In . SVG Version: 6.00 Build 0)  -->
<svg version="1.1" id="Layer_1" xmlns="http://www.w3.org/2000/svg" xmlns:xlink="http://www.w3.org/1999/xlink" x="0px" y="0px"
	 viewBox="0 0 512 512" style="enable-background:new 0 0 512 512;" xml:space="preserve">
<style type="text/css">
	.st0{fill:none;stroke:#000000;stroke-width:9;stroke-miterlimit:10;}
</style>
<g>
	<g>
		<g>
			<path d="M153.6,273.1c2.2,0,4.4-0.8,6-2.5l6.8-6.8l11.6,11.6c1.7,1.7,3.8,2.5,6,2.5c2.2,0,4.4-0.8,6-2.5c3.3-3.3,3.3-8.7,0-12.1
				l-11.6-11.6l6.8-6.8c3.3-3.3,3.3-8.7,0-12.1c-3.3-3.3-8.7-3.3-12.1,0l-25.6,25.6c-3.3,3.3-3.3,8.7,0,12.1
				C149.2,272.2,151.4,273.1,153.6,273.1z"/>
			<path d="M204.8,221.9c2.2,0,4.4-0.8,6-2.5l6.8-6.8l11.6,11.6c1.7,1.7,3.8,2.5,6,2.5c2.2,0,4.4-0.8,6-2.5c3.3-3.3,3.3-8.7,0-12.1
				l-11.6-11.6l6.8-6.8c3.3-3.3,3.3-8.7,0-12.1c-3.3-3.3-8.7-3.3-12.1,0l-25.6,25.6c-3.3,3.3-3.3,8.7,0,12.1
				C200.4,221,202.6,221.9,204.8,221.9z"/>
			<path d="M102.4,324.3c2.2,0,4.4-0.8,6-2.5l6.8-6.8l11.6,11.6c1.7,1.7,3.8,2.5,6,2.5c2.2,0,4.4-0.8,6-2.5c3.3-3.3,3.3-8.7,0-12.1
				l-11.6-11.6l6.8-6.8c3.3-3.3,3.3-8.7,0-12.1s-8.7-3.3-12.1,0l-25.6,25.6c-3.3,3.3-3.3,8.7,0,12.1
				C98,323.4,100.2,324.3,102.4,324.3z"/>
			<path d="M511.5,176.2C485,105.8,406.2,27,335.8,0.5c-2.9-1.1-6.2-0.5-8.5,1.5c-2.4,2-3.4,5.1-2.8,8.2c15.2,76.2,3,145.2-31.8,180
				L39.1,443.7H8.5c-3.4,0-6.6,2.1-7.9,5.3c-1.3,3.2-0.6,6.9,1.9,9.3l51.2,51.2c1.6,1.6,3.8,2.5,6,2.5c1.1,0,2.2-0.2,3.3-0.6
				c3.2-1.3,5.3-4.4,5.3-7.9v-30.6l68.1-68.1c-1.2,19,5.5,38.5,20.1,53.1c13,13,30.4,20.2,48.9,20.2c18.2,0,35.3-7,48.1-19.8
				L373,338.8c26.6-26.6,26.4-70.1-0.4-97c-14-14-33.5-21.3-53.2-20.1l2.4-2.4c26.3-26.3,68.8-42,113.6-42c21.3,0,43.4,3.4,65.6,10
				c3.1,0.9,6.5,0,8.7-2.3C511.9,182.7,512.6,179.2,511.5,176.2z M256,251l56.2,56.2l-39.1,39.1l-56.2-56.2L256,251z M204.8,302.2
				l56.2,56.2l-39.1,39.1l-56.2-56.2L204.8,302.2z M53.7,463.3c-1.6,1.6-2.5,3.8-2.5,6v13.5l-22.1-22.1h13.5c2.3,0,4.4-0.9,6-2.5
				l104.9-104.9l5.6,5.6c-1.1,0.4-2.2,1-3.1,1.9L156,361L53.7,463.3z M323.6,238.7c14,0,27,5.4,36.8,15.2
				c20.2,20.2,20.4,52.9,0.4,72.8L241.4,446.2c-9.5,9.5-22.3,14.8-36,14.8c-14,0-27-5.4-36.8-15.2c-20.2-20.2-20.4-52.9-0.4-72.8
				c0.9-0.9,1.5-2,1.9-3.1l39.7,39.7l-11,11c-3.3,3.3-3.3,8.7,0,12.1c1.7,1.7,3.8,2.5,6,2.5c2.2,0,4.4-0.8,6-2.5l11-11l6.8,6.8
				c1.7,1.7,3.8,2.5,6,2.5c2.2,0,4.4-0.8,6-2.5c3.3-3.3,3.3-8.7,0-12.1l-6.8-6.8l39.1-39.1l6.8,6.8c1.7,1.7,3.8,2.5,6,2.5
				c2.2,0,4.4-0.8,6-2.5c3.3-3.3,3.3-8.7,0-12.1l-6.8-6.8l39.1-39.1l6.8,6.8c1.7,1.7,3.8,2.5,6,2.5c2.2,0,4.4-0.8,6-2.5
				c3.3-3.3,3.3-8.7,0-12.1l-6.8-6.8l11-11c3.3-3.3,3.3-8.7,0-12.1c-3.3-3.3-8.7-3.3-12.1,0l-11,11l-39.7-39.7
				c1.1-0.4,2.2-1,3.1-1.9l0.1-0.1C297.2,243.9,310,238.7,323.6,238.7z M309.7,207.3l-34.1,34.1c-0.9,0.9-1.5,2-1.9,3.1l-5.6-5.6
				l36.6-36.6c36.9-36.9,51.2-103.4,39.3-179.8c57.3,26.9,117.3,86.7,144.8,144C419.1,150.5,350,167,309.7,207.3z"/>
		</g>
	</g>
</g>
<ellipse transform="matrix(0.7071 -0.7071 0.7071 0.7071 -184.9099 253.3251)" class="st0" cx="213.3" cy="349.9" rx="14" ry="31.5"/>
<path d="M227.6,350.7c-6.6-7.9-14.8-12-18.3-9.2s-0.9,11.6,5.8,19.6c6.6,7.9,14.8,12,18.3,9.2S234.2,358.7,227.6,350.7z
	 M221.7,349.6c3.2,0,3.2,5,0,5C218.5,354.6,218.5,349.6,221.7,349.6z M225.3,364.5c-5.2,0-5.1-8,0-8
	C230.4,356.5,230.4,364.5,225.3,364.5z"/>
<path d="M192,347.9C192,347.8,192,347.8,192,347.9c0,0-0.2-0.2-0.3-0.3c-4.8-5.2-6.6-10.5-6.6-10.5c-0.2-0.7-0.6-1.8-0.8-3.2
	c-0.3-1.8-0.8-4.9,0.4-8.4c1.5-4.1,4.5-6.2,5.3-6.7c4.1-2.7,8.3-2.3,10.8-2.1c4.4,0.4,5.3,1.3,6.4,1.6c0.2,0.1,0.6,0.2,0.5,0.2
	c0,0.2-3.4-0.5-6.1-0.3c-3.4,0.2-7.8,1.7-10.8,5.4c-3.2,3.9-3.2,8.4-3.2,10c0,3.5,1,6.1,1.9,8.3c1.1,2.9,2.5,5,3.5,6.5"/>
<path d="M208.7,398.4C208.7,398.4,208.7,398.4,208.7,398.4c0,0,0,0.2,0.1,0.4c1.2,5.7,4.9,8.7,4.9,8.7c0.5,0.4,1.2,1,2.4,1.6
	c1.5,0.8,4,2,8.2,1.8c4.9-0.3,9.2-2.5,10.3-3.1c5.5-3,8.4-6.9,10-9.2c1-1.3,1.7-3,3.3-6.2c0.1-0.2,0.3-0.5,0.2-0.6
	c-0.2,0-2.1,3.2-4.2,5.6c-2.7,3-7.5,6.6-13.2,8.4c-6,1.9-10.2,0.7-11.8,0.3c-3.3-0.9-5-2.5-6.4-3.8c-1.8-1.7-2.9-3.5-3.5-4.8"/>
<ellipse transform="matrix(0.6253 -0.7804 0.7804 0.6253 -136.2698 318.0325)" class="st0" cx="263" cy="300.9" rx="12.7" ry="30.7"/>
<path d="M284.1,319.1c3-2.8-1.1-9.9-9.4-16c-8.2-6.1-17.3-8.8-20.4-6s1.1,9.9,9.4,16C272,319.2,281.1,321.8,284.1,319.1z
	 M267.9,308.3c0,2.7-5.2,2.5-5.2-0.3C262.7,305.3,267.9,305.5,267.9,308.3z M269.9,311.4c0.1-4.4,8.4-4,8.3,0.4
	C278.1,316.2,269.8,315.8,269.9,311.4z"/>
<path d="M261.2,282.7C261.2,282.7,261.1,282.7,261.2,282.7c0,0-0.2-0.1-0.3-0.3c-5.3-4.4-10.9-6.2-10.9-6.2
	c-0.7-0.2-1.8-0.6-3.3-0.9c-1.9-0.4-5.1-1-8.8-0.1c-4.2,1-6.5,3.5-7.1,4.2c-2.8,3.3-2.5,6.9-2.3,9.1c0.4,3.8,1.2,4.6,1.6,5.5
	c0.1,0.2,0.2,0.5,0.2,0.5c0.2,0-0.4-2.9-0.3-5.2c0.2-2.9,1.9-6.6,5.8-8.9c4.1-2.5,8.8-2.3,10.5-2.2c3.6,0.2,6.4,1.2,8.7,2
	c3,1.1,5.2,2.4,6.7,3.3"/>
<path d="M332.5,348.4c-25.8,9.4-57.1,32-72.8,67.5"/>
</svg>
