<?xml version="1.0" encoding="utf-8"?>
<!-- Generator: Adobe Illustrator 23.0.5, SVG Export Plug-In . SVG Version: 6.00 Build 0)  -->
<svg version="1.1" id="Layer_1" xmlns="http://www.w3.org/2000/svg" xmlns:xlink="http://www.w3.org/1999/xlink" x="0px" y="0px"
	 viewBox="0 0 470 470" style="enable-background:new 0 0 470 470;" xml:space="preserve">
<style type="text/css">
	.st0{fill:none;stroke:#000000;stroke-width:9;stroke-miterlimit:10;}
</style>
<g>
	<g>
		<path d="M467.8,114.8L355.2,2.2c-2.4-2.4-6.2-2.9-9.1-1.2c-2.9,1.7-4.4,5.2-3.4,8.5c11.7,41.2,0.1,85.7-30.2,116l-73.7,73.7
			l-15.9-15.9c-1.4-1.4-3.3-2.2-5.3-2.2s-3.9,0.8-5.3,2.2l-5.3,5.3L196.3,178l5.3-5.3c2.9-2.9,2.9-7.7,0-10.6
			c-2.9-2.9-7.7-2.9-10.6,0l-21.2,21.2c-2.9,2.9-2.9,7.7,0,10.6c1.5,1.5,3.4,2.2,5.3,2.2s3.8-0.7,5.3-2.2l5.3-5.3l10.6,10.6
			l-5.3,5.3c-2.9,2.9-2.9,7.7,0,10.6l15.9,15.9l-10.6,10.6l-15.9-15.9c-2.9-2.9-7.7-2.9-10.6,0l-5.3,5.3l-10.6-10.6l5.3-5.3
			c2.9-2.9,2.9-7.7,0-10.6c-2.9-2.9-7.7-2.9-10.6,0L138,215.2c0,0-10.6,10.6-10.6,10.6c-2.9,2.9-2.9,7.7,0,10.6
			c1.5,1.5,3.4,2.2,5.3,2.2c1.9,0,3.8-0.7,5.3-2.2l5.3-5.3l10.6,10.6l-5.3,5.3c-1.4,1.4-2.2,3.3-2.2,5.3s0.8,3.9,2.2,5.3l15.9,15.9
			l-10.6,10.6L138,268.2c-1.4-1.4-3.3-2.2-5.3-2.2s-3.9,0.8-5.3,2.2l-5.3,5.3l-10.6-10.6l5.3-5.3c2.9-2.9,2.9-7.7,0-10.6
			c-2.9-2.9-7.7-2.9-10.6,0l-10.6,10.6c0,0-10.6,10.6-10.6,10.6c-2.9,2.9-2.9,7.7,0,10.6c1.5,1.5,3.4,2.2,5.3,2.2s3.8-0.7,5.3-2.2
			l5.3-5.3l10.6,10.6l-5.3,5.3c-2.9,2.9-2.9,7.7,0,10.6l15.9,15.9L14.6,423.4l-1.8-1.8c-2.9-2.9-7.7-2.9-10.6,0
			c-2.9,2.9-2.9,7.7,0,10.6l35.5,35.5c1.5,1.5,3.4,2.2,5.3,2.2s3.8-0.7,5.3-2.2c2.9-2.9,2.9-7.7,0-10.6l-1.8-1.8l49.6-49.6
			c3.5,8.1,8.6,15.6,14.9,21.9c13.5,13.5,31.4,20.9,50.4,20.9s36.9-7.4,50.4-20.9l11-11l15.9,15.9c1.5,1.5,3.4,2.2,5.3,2.2
			c1.9,0,3.8-0.7,5.3-2.2l21.2-21.2c1.4-1.4,2.2-3.3,2.2-5.3s-0.8-3.9-2.2-5.3l-15.9-15.9l10.6-10.6l15.9,15.9
			c1.5,1.5,3.4,2.2,5.3,2.2c1.9,0,3.8-0.7,5.3-2.2l21.2-21.2c1.4-1.4,2.2-3.3,2.2-5.3s-0.8-3.9-2.2-5.3l-15.9-15.9l10.6-10.6
			l15.9,15.9c1.4,1.4,3.3,2.2,5.3,2.2s3.9-0.8,5.3-2.2l21.2-21.2c2.9-2.9,2.9-7.7,0-10.6l-15.9-15.9l11-11
			c27.8-27.8,27.8-73,0-100.8c-13.5-13.5-31.4-20.9-50.4-20.9c-3,0-6,0.2-8.9,0.6l31.9-31.9c28.2-28.2,42-67.4,38.5-106.3l78.5,78.5
			c-38.9-3.5-78.1,10.3-106.3,38.5c-2.9,2.9-2.9,7.7,0,10.6c2.9,2.9,7.7,2.9,10.6,0c30.3-30.3,74.8-41.9,116-30.2
			c3.3,0.9,6.8-0.5,8.5-3.4C470.7,120.9,470.2,117.2,467.8,114.8z M206.9,209.9l5.3-5.3c0,0,5.3-5.3,5.3-5.3l10.6,10.6l-10.6,10.6
			L206.9,209.9z M164.5,252.3l10.6-10.6l10.6,10.6l-10.6,10.6L164.5,252.3z M122.1,294.7l10.6-10.6l10.6,10.6l-10.6,10.6
			L122.1,294.7z M201.3,417.1c-10.6,10.6-24.8,16.5-39.8,16.5s-29.2-5.9-39.8-16.5c-6.5-6.5-11.2-14.3-13.9-22.9l12.9-12.9
			c0.9,9.5,5,18.2,11.8,25c8,8,18.5,12,29,12s21-4,29-12l11-11l10.8,10.8L201.3,417.1z M143.1,358.9l11-11l36.9,36.9l-11,11
			c-10.2,10.2-26.7,10.2-36.8,0C132.9,385.6,132.9,369,143.1,358.9z M254.7,406.2l-10.6,10.6l-79.4-79.4l31.8-31.8l36.8,36.9
			L222.7,353L201.8,332c-2.9-2.9-7.7-2.9-10.6,0c-2.9,2.9-2.9,7.7,0,10.6l47.6,47.6C238.8,390.2,254.7,406.2,254.7,406.2z
			 M244.1,374.3l-10.8-10.8l10.6-10.6l10.8,10.8L244.1,374.3z M286.5,374.3l-15.9-15.9c0,0-63.5-63.5-63.5-63.5l31.8-31.8l36.9,36.9
			l-10.6,10.6l-20.9-20.9c-2.9-2.9-7.7-2.9-10.6,0c-2.9,2.9-2.9,7.7,0,10.6l26.2,26.2c0,0,21.4,21.4,21.4,21.4
			c0,0,15.9,15.9,15.9,15.9L286.5,374.3z M286.5,331.9l-10.8-10.8l10.6-10.6l10.8,10.8L286.5,331.9z M339.6,321.3L329,331.9
			L313.1,316c0,0-63.5-63.5-63.5-63.5l32.2-32.2c10.2-10.2,26.7-10.2,36.9,0c4.9,4.9,7.6,11.5,7.6,18.4s-2.7,13.5-7.6,18.4l-11,11
			l-20.9-20.9c-2.9-2.9-7.7-2.9-10.6,0c-2.9,2.9-2.9,7.7,0,10.6L339.6,321.3z M300.1,182.4c15,0,29.2,5.9,39.8,16.5
			c21.9,21.9,21.9,57.7,0,79.6l-11,11l-10.8-10.8l11-11c7.7-7.7,12-18.1,12-29s-4.3-21.3-12-29c-16-16-42.1-16-58.1,0L35.9,444.8
			l-10.8-10.8l235.1-235.1C271,188.3,285.1,182.4,300.1,182.4z"/>
	</g>
</g>
<g>
	<g>
		
			<ellipse transform="matrix(0.7048 -0.7094 0.7094 0.7048 -125.2759 111.4136)" class="st0" cx="71.2" cy="206.2" rx="23.3" ry="52.4"/>
		<path class="st0" d="M92.6,194.1c16.4,23.8,28.5,37.3,39.3,30.2c10.8-7.1,6.6-32.4-9.3-56.6s-37.5-38.1-48.3-31
			c-8.7,5.7-10.2,20.3-0.1,38.7C76.5,179.8,89.6,189.7,92.6,194.1z"/>
		<ellipse transform="matrix(0.7048 -0.7094 0.7094 0.7048 -132.1915 128.3334)" cx="88.1" cy="223" rx="13.1" ry="25.2"/>
		<ellipse transform="matrix(0.8157 -0.5785 0.5785 0.8157 -93.1181 104.9592)" cx="118.1" cy="198.6" rx="11.8" ry="22.9"/>
	</g>
	<path d="M82.3,185.7c1.9,1.5-3.9,11.8-12.9,23c-9,11.2-13.3,14.1-15.2,12.5c-1.9-1.5-0.7-7,8.3-18.1S80.4,184.2,82.3,185.7z"/>
	<path d="M118.1,154.5c1.6,1.6-2.9,8.9-12.7,18.7s-19.1,16.6-20.7,15c-1.6-1.6,5.1-10.9,14.9-20.7S116.5,152.9,118.1,154.5z"/>
</g>
</svg>
