<?xml version="1.0" encoding="utf-8"?>
<!-- Generator: Adobe Illustrator 23.0.5, SVG Export Plug-In . SVG Version: 6.00 Build 0)  -->
<svg version="1.1" id="Capa_1" xmlns="http://www.w3.org/2000/svg" xmlns:xlink="http://www.w3.org/1999/xlink" x="0px" y="0px"
	 viewBox="0 0 60 60" style="enable-background:new 0 0 60 60;" xml:space="preserve">
<style type="text/css">
	.st0{fill:#FFFFFF;stroke:#000000;stroke-miterlimit:10;}
</style>
<g>
	<path d="M60,19.8c0-3.3-2.7-6.4-7.6-8.7l6.9-6.9c1-1,1-2.6,0-3.5c-0.9-0.9-2.6-0.9-3.5,0l-8.5,8.5C42.2,7.8,36.3,7,30,7
		S17.8,7.8,12.8,9.2L4.3,0.7c-0.9-0.9-2.6-0.9-3.5,0c-1,1-1,2.6,0,3.5l6.9,6.9C2.7,13.4,0,16.5,0,19.8c0,0.1,0,0.1,0,0.2
		c0,0,0,0,0,0v24.6l4.3,3.7c0.1,0.1,0.2,0.2,0.3,0.2l8.5-16.9c0,0,0.1-0.1,0.1-0.1c0-0.1,0.1-0.1,0.2-0.2c0.1-0.1,0.2-0.1,0.2-0.1
		c0,0,0.1,0,0.1-0.1c0,0,0,0,0,0c0.1,0,0.2,0,0.3,0c0.2,0,0.3,0,0.5,0.1c0,0,0,0,0,0c0,0,0.1,0,0.1,0.1c0.1,0.1,0.2,0.1,0.2,0.2
		c0.1,0.1,0.1,0.2,0.1,0.2c0,0,0,0.1,0.1,0.1l0,0c0,0,0,0,0,0l7.1,20.5l8-18.7c0,0,0.1-0.1,0.1-0.1c0-0.1,0.1-0.1,0.1-0.2
		c0.1-0.1,0.1-0.1,0.2-0.1c0,0,0.1-0.1,0.1-0.1c0,0,0,0,0,0c0.1,0,0.2,0,0.3-0.1c0,0,0.1,0,0.1,0c0,0,0.1,0,0.1,0
		c0.1,0,0.2,0,0.3,0.1c0,0,0,0,0,0c0,0,0.1,0.1,0.1,0.1c0.1,0,0.1,0.1,0.2,0.1s0.1,0.1,0.1,0.2c0,0,0.1,0.1,0.1,0.1l8,18.8l8-21.4
		c0,0,0-0.1,0.1-0.1c0-0.1,0.1-0.1,0.1-0.2c0.1-0.1,0.1-0.1,0.2-0.1c0,0,0.1-0.1,0.1-0.1c0,0,0,0,0,0c0.1,0,0.2-0.1,0.3-0.1
		c0,0,0.1,0,0.1,0c0,0,0.1,0,0.1,0c0.1,0,0.2,0,0.2,0c0,0,0,0,0,0c0.1,0,0.1,0.1,0.1,0.1c0.1,0,0.1,0.1,0.2,0.1
		c0.1,0.1,0.1,0.1,0.2,0.2c0,0,0.1,0.1,0.1,0.1l7.6,15.8l2.5-2.2V20c0,0,0,0,0,0C60,19.9,60,19.8,60,19.8z M9.1,12.6l11.2,11.2
		c0.5,0.5,1,1,1.6,1.4l1.7,1.4c0,0,0,0,0,0c0.1,0.1,0.3,0.2,0.4,0.2h0c0.3,0.1,0.6,0.2,0.9,0.2c0.5,0,0.9-0.2,1.3-0.5
		c0,0,0.1-0.1,0.1-0.1c0.1-0.1,0.2-0.1,0.2-0.2c0.1-0.1,0.2-0.3,0.3-0.4c0.4-0.7,0.3-1.5-0.2-2.2l-1.4-1.7c-0.4-0.6-0.9-1.1-1.4-1.6
		l-9.4-9.4C19,9.6,24.4,9,30,9s11,0.6,15.6,1.8l-9.4,9.4c-0.5,0.5-1,1-1.4,1.6l-1.4,1.7c-0.2,0.2-0.3,0.5-0.4,0.8
		c-0.1,0.5-0.1,1,0.1,1.4c0.1,0.2,0.2,0.3,0.3,0.4c0.1,0.1,0.2,0.2,0.2,0.2c0,0,0.1,0.1,0.1,0.1c0.4,0.3,0.8,0.5,1.3,0.5
		c0.5,0,0.9-0.2,1.3-0.5l1.7-1.4c0.6-0.4,1.1-0.9,1.6-1.4l11.2-11.2c4.6,2,7.1,4.5,7.1,7.2c0,0.1,0,0.1,0,0.2c0,0,0,0,0,0
		c-0.2,5.9-13,10.9-28,10.9s-27.8-5-28-10.9c0,0,0,0,0,0c0-0.1,0-0.1,0-0.2C2,17.2,4.5,14.6,9.1,12.6z"/>
	<path d="M6.3,49.7c3.4,2.2,8.5,3.8,14.4,4.7l-6.9-19.8L6.3,49.7z"/>
	<path d="M30,57c-11.6,0-22-2.8-27-7.3l-3-2.6C0.2,54.4,13.3,60,30,60c16.7,0,29.8-5.6,30-12.9L56.7,50C51.5,54.3,41.3,57,30,57z"/>
	<path d="M49,33.8L41.4,54c6-1.1,11-3,13.9-5.5l0.5-0.5L49,33.8z"/>
	<path d="M38.7,54.4L31,36.5l-7.8,18.2c2.2,0.2,4.5,0.3,6.8,0.3C33,55,35.9,54.8,38.7,54.4z"/>
</g>
<g>
	<ellipse class="st0" cx="46" cy="23.3" rx="2.7" ry="5.5"/>
	<ellipse class="st0" cx="46" cy="25.3" rx="1.8" ry="3.5"/>
</g>
<g>
	<ellipse class="st0" cx="13.8" cy="23.3" rx="2.7" ry="5.5"/>
	<ellipse class="st0" cx="13.8" cy="25.3" rx="1.8" ry="3.5"/>
</g>
</svg>
