<?xml version="1.0" encoding="utf-8"?>
<!-- Generator: Adobe Illustrator 23.0.5, SVG Export Plug-In . SVG Version: 6.00 Build 0)  -->
<svg version="1.1" id="Capa_1" xmlns="http://www.w3.org/2000/svg" xmlns:xlink="http://www.w3.org/1999/xlink" x="0px" y="0px"
	 viewBox="0 0 295.7 295.7" style="enable-background:new 0 0 295.7 295.7;" xml:space="preserve">
<style type="text/css">
	.st0{fill:none;stroke:#000000;stroke-width:4;stroke-miterlimit:10;}
	.st1{stroke:#000000;stroke-miterlimit:10;}
</style>
<g>
	<path d="M184.1,250.9c-5.8,0-11-3.4-13.5-8.4L149.4,199l-20.8,42.6c-3.2,6.5-8.3,9.4-13.9,9.4c-5.7,0-10.8-2.9-13.9-9.4L79.9,199
		l-21.3,43.5c-2.3,4.8-7.2,8.2-12.8,8.4c-5.4,0.2-10.6-2.5-13.5-7.3l-19.6-32.8v57.7c0,15,45.7,27.2,102,27.2s102-12.2,102-27.2
		v-57.7L197,243.6C194.2,248.3,189.2,250.9,184.1,250.9z"/>
	<path d="M202.8,102.7l-26,8.3c1,1.3,1.5,2.8,1.4,4.6c-1.3,15.3-13.4,28.3-28.5,31.2c-7,1.3-14.8,0.5-20.1-4.7
		c-4.1-3.9-5.6-8.9-5.8-14.1c-8.4,2.1-17.2,0.8-24.5-3.6c-2.9,10.1-11,18-22.3,14.4c-10.2-3.3-17.4-13.8-20.2-23.7
		c-0.7-2.5-0.3-4.6,0.9-6.3c-0.1-0.1-0.2-0.2-0.3-0.4c-2.9-4.2-4.7-8.9-5.4-13.6c-23.9,5-39.2,12.7-39.2,21.5v35.4l31.1,52.6
		l22.6-46.3c2.5-5.1,7.7-8.4,13.5-8.4c5.7,0,11,3.3,13.5,8.4l21.3,43.5l21.3-43.5c2.5-5.1,7.7-8.4,13.5-8.4c5.7,0,11,3.3,13.5,8.4
		l22.6,46.3l31.2-51.7v-36.3C216.6,111.4,211.6,106.8,202.8,102.7z"/>
	<path d="M282.4,43.1c-2.5-7.9-11-12.2-18.9-9.7c-6.7,2.2-125.1,40.1-131.6,42.2l70.2-48.2c6.8-4.7,8.6-14,3.9-20.9
		c-4.7-6.8-14-8.6-20.9-3.9L75.6,77.8c-6.8,4.7-8.6,14-3.9,20.9c4.7,6.8,14,8.6,20.9,3.9l8.2-5.6c0,1.4,0.3,2.8,0.7,4.1
		c2.5,7.8,10.9,12.2,18.9,9.7l152.4-48.9C280.6,59.4,284.9,51,282.4,43.1z"/>
</g>
<g>
	<path class="st0" d="M172.4,123.8c-0.5-10.2-11.2-18-23.8-17.4c-12.7,0.6-22.5,9.4-22,19.6c0.5,10.2,11.2,18,23.8,17.4
		C163,142.8,172.9,134,172.4,123.8z M154.6,135.4c-1.9,0-3.3-0.7-4.4-1.7c0.2,2.4-1.2,5-4.3,5c-5.8,0-5.8-9,0-9c1,0,1.9,0.3,2.6,0.8
		c-0.8-3.7,1.3-8.1,6.1-8.1C163,122.4,163,135.4,154.6,135.4z"/>
	<path class="st1" d="M149.2,120c-8.3,0.4-14.8,6-14.5,12.4c0.3,6.4,7.3,11.3,15.7,10.9c8.3-0.4,14.8-6,14.5-12.4
		C164.6,124.5,157.6,119.6,149.2,120z M154.6,135.4c-1.9,0-3.3-0.7-4.4-1.7c0.2,2.4-1.2,5-4.3,5c-5.8,0-5.8-9,0-9
		c1,0,1.9,0.3,2.6,0.8c-0.8-3.7,1.3-8.1,6.1-8.1C163,122.4,163,135.4,154.6,135.4z"/>
</g>
<g>
	<path class="st0" d="M65.4,120.6c0.3-6.9,7.1-12.2,15.3-11.7c8.1,0.4,14.5,6.3,14.1,13.2c-0.3,6.9-7.1,12.2-15.3,11.7
		C71.4,133.5,65.1,127.5,65.4,120.6z M76.8,128.5c1.2,0,2.1-0.4,2.8-1.1c-0.1,1.6,0.8,3.3,2.8,3.3c3.7,0,3.7-6.1,0-6.1
		c-0.7,0-1.2,0.2-1.6,0.5c0.5-2.5-0.8-5.4-3.9-5.4C71.4,119.7,71.4,128.5,76.8,128.5z"/>
	<path class="st1" d="M80.3,118.1c5.4,0.3,9.5,4,9.3,8.4c-0.2,4.4-4.7,7.7-10,7.4c-5.4-0.3-9.5-4-9.3-8.4
		C70.4,121.1,74.9,117.8,80.3,118.1z M76.8,128.5c1.2,0,2.1-0.4,2.8-1.1c-0.1,1.6,0.8,3.3,2.8,3.3c3.7,0,3.7-6.1,0-6.1
		c-0.7,0-1.2,0.2-1.6,0.5c0.5-2.5-0.8-5.4-3.9-5.4C71.4,119.7,71.4,128.5,76.8,128.5z"/>
</g>
</svg>
