<?xml version="1.0" encoding="utf-8"?>
<!-- Generator: Adobe Illustrator 23.0.5, SVG Export Plug-In . SVG Version: 6.00 Build 0)  -->
<svg version="1.1" id="Capa_1" xmlns="http://www.w3.org/2000/svg" xmlns:xlink="http://www.w3.org/1999/xlink" x="0px" y="0px"
	 viewBox="0 0 458.6 458.6" style="enable-background:new 0 0 458.6 458.6;" xml:space="preserve">
<g>
	<path d="M458.4,26.9c-0.8-3.7-3.5-6.4-7.2-7.2c-2.3-0.5-4.6-0.7-6.9-0.7c-1.5,0-3,0.1-4.5,0.3l-1.5-3.4c-0.9-2-3.3-2.9-5.3-2
		s-2.9,3.3-2,5.3l1,2.3c0,0,0,0,0,0l-3,1.2l-1.1-2.5c-0.9-2-3.3-2.9-5.3-2c-2,0.9-2.9,3.3-2,5.3l1,2.3l-3,1.2l-1.1-2.5
		c-0.9-2-3.3-2.9-5.3-2c-2,0.9-2.9,3.3-2,5.3l1,2.3l-3,1.2l-1.1-2.5c-0.9-2-3.3-2.9-5.3-2c-2,0.9-2.9,3.3-2,5.3l1,2.3l-3,1.2
		l-1.1-2.5c-0.9-2-3.3-2.9-5.3-2.1c-2,0.9-2.9,3.2-2.1,5.3l1,2.3l-3,1.2l-1.1-2.5c-0.9-2-3.3-2.9-5.3-2c-2,0.9-2.9,3.3-2,5.3
		l1.1,2.6c-3.4,2.5-5.3,6.9-4.4,11.3c0.6,3.3-0.2,6.8-2.3,9.4L243.4,227.7c-4.7,6-11.8,9.4-19.5,9.4c-1.2,0-2.5-0.1-3.7-0.3
		l-23.4-3.5c-0.8-0.1-1.7-0.2-2.5-0.2c-7,0-13.3,4.4-15.6,11.1l-15.5,44.1c-1.7,4.9-5.5,8.9-10.2,10.9L7.4,361.8
		c-4.5,1.9-7.3,6.1-7.4,11c-0.1,4.9,2.6,9.2,6.9,11.3c30.7,14.8,110.9,50.3,193.4,60.9c0.8,0.1,1.5,0.1,2.3,0.1
		c8.2,0,15.3-5.6,17.3-13.5l17.6-71c1.7-6.7,5.8-12.4,11.7-16l89.1-55.3c3.2-2,4.6-5.6,3.6-9.2c-1-3.6-4.1-6-7.8-6
		c-0.7,0-1.3,0.1-2,0.2l-66.1,15.8c-1,0.2-2.1,0.4-3.1,0.4c-4.6,0-8.8-2.7-10.9-7c-2.1-4.3-1.6-9.1,1.3-12.9l148.2-195l53.4-39.1
		C457.8,34.2,459.2,30.6,458.4,26.9z M262.8,298.5c1.6,0,3.3-0.2,4.9-0.6l66.1-15.8c0.1,0,0.2,0.3,0.1,0.3l-89.1,55.3
		c-7.6,4.7-13.1,12.2-15.2,20.9l-17.6,71c-1.1,4.4-5,7.5-9.5,7.5c-0.4,0-0.8,0-1.3-0.1c-81.4-10.4-160.6-45.5-191-60.1
		c-2.3-1.1-2.4-3.3-2.4-4c0-0.6,0.2-2.8,2.6-3.8l145.6-62.5c6.8-2.9,12.1-8.6,14.6-15.6l15.5-44.1c1.2-3.4,4.4-5.7,8-5.7
		c0.4,0,0.9,0,1.3,0.1l23.4,3.5c1.6,0.2,3.3,0.4,4.9,0.4c2,0,4-0.2,6-0.6l-3.8,4.8c-0.7,0.8-1,1.9-0.8,3c0.1,1.1,0.7,2,1.5,2.7
		l17.9,14.1c-2.8,5.6-2.9,12.1,0,18C248.2,294.2,255.2,298.5,262.8,298.5z M249.3,262.5l-14.4-11.3L379.2,68.1
		c0.9-1.2,1.7-2.5,2.4-3.8l11.4,9.1L249.3,262.5z M450,30l-51.4,37.7l-15.2-12.1c0-1.1-0.1-2.2-0.3-3.3c-0.3-1.6,0.6-3.2,2.1-3.8
		l49.6-19.7c4.6-1.8,9.8-2.3,14.6-1.2c0.8,0.2,1,0.7,1.1,1C450.6,28.9,450.7,29.5,450,30z"/>
	<path d="M229.3,275.6c0-2.2-1.9-4-4.1-3.9l-42,0.7c-2.2,0-4,1.9-3.9,4.1c0,2.2,1.9,4,4.1,3.9l42-0.7c0.9,0,1.8-0.4,2.5-0.9
		C228.8,278,229.3,276.9,229.3,275.6z"/>
	<path d="M136.4,320.3l-4,41.8c-0.1,0.9,0.2,1.8,0.6,2.6c0.6,1,1.7,1.7,3,1.8c2.2,0.2,4.2-1.4,4.4-3.6l4-41.8
		c0.2-2.2-1.4-4.2-3.6-4.4C138.6,316.5,136.7,318.1,136.4,320.3z"/>
	<path d="M145.3,338.6l39.1,31.2l16.2-20.3l-39.1-31.2L145.3,338.6z M189.4,350.7l-6.2,7.8l-26.6-21.2l6.2-7.8L189.4,350.7z"/>
	<path d="M174.8,303.1l39.1,31.2l16.2-20.3L191,282.7L174.8,303.1z M218.9,315.2l-6.2,7.8l-26.6-21.2l6.2-7.8L218.9,315.2z"/>
	<path d="M188.9,344c-1.9-1.5-4.4-2.4-6.9-2.4c-3.4,0-6.5,1.5-8.6,4.1c-3.8,4.7-3,11.7,1.8,15.5c1.9,1.5,4.4,2.4,6.9,2.4
		c3.4,0,6.5-1.5,8.6-4.1c1.8-2.3,2.7-5.2,2.3-8.1C192.6,348.4,191.2,345.8,188.9,344z M184.4,354.5c-0.6,0.7-1.4,1.1-2.4,1.1
		c-0.5,0-1.2-0.1-1.9-0.7c-1.3-1-1.5-2.9-0.5-4.2c0.6-0.7,1.4-1.1,2.4-1.1c0.5,0,1.2,0.1,1.9,0.7c0.6,0.5,1,1.2,1.1,2
		C185.1,353.1,184.9,353.9,184.4,354.5z"/>
	<path d="M218.5,308.1c-1.9-1.5-4.4-2.4-6.9-2.4c-3.4,0-6.5,1.5-8.6,4.1c-3.8,4.7-3,11.7,1.8,15.5c1.9,1.5,4.4,2.4,6.9,2.4
		c3.4,0,6.5-1.5,8.6-4.1C224,318.8,223.2,311.9,218.5,308.1z M214,318.6c-0.6,0.7-1.4,1.1-2.4,1.1c-0.5,0-1.2-0.1-1.9-0.7
		c-0.6-0.5-1-1.2-1.1-2c-0.1-0.8,0.1-1.6,0.6-2.2c0.6-0.7,1.4-1.1,2.4-1.1c0.5,0,1.2,0.1,1.9,0.7c0.6,0.5,1,1.2,1.1,2
		C214.7,317.2,214.5,317.9,214,318.6z"/>
</g>
<path d="M184.2,386.9c23.9-13.5,51.1-40.8,60.8-78.5"/>
</svg>
