<?xml version="1.0" encoding="iso-8859-1"?>
<!-- Generator: Adobe Illustrator 19.0.0, SVG Export Plug-In . SVG Version: 6.00 Build 0)  -->
<svg version="1.1" id="Layer_1" xmlns="http://www.w3.org/2000/svg" xmlns:xlink="http://www.w3.org/1999/xlink" x="0px" y="0px"
	 viewBox="0 0 512.001 512.001" style="enable-background:new 0 0 512.001 512.001;" xml:space="preserve">
<g>
	<g>
		<path d="M454.846,258.939c13.147,0,23.843-10.696,23.843-23.843v-20.121c0-13.148-10.697-23.843-23.843-23.843H56.138
			c-13.147,0-23.843,10.697-23.843,23.843v20.121c0,13.147,10.697,23.843,23.843,23.843h1.569v185.255h-1.569
			c-13.147,0-23.843,10.697-23.843,23.843v20.121c0,13.147,10.697,23.843,23.843,23.843h398.708
			c13.147,0,23.843-10.697,23.843-23.843v-20.121c0-13.147-10.695-23.843-23.843-23.843h-1.224V258.939H454.846z M454.846,461.146
			c3.799,0,6.891,3.092,6.891,6.891v20.121c0,3.799-3.091,6.891-6.891,6.891H56.138c-3.799,0-6.891-3.092-6.891-6.891v-20.121
			c0-3.799,3.092-6.891,6.891-6.891h10.044h378.964H454.846z M445.146,241.986H134.365c-4.681,0-8.476,3.795-8.476,8.476
			c0,0.085,0.01,0.167,0.012,0.252v32.889v0.062c0,4.681,3.795,8.476,8.476,8.476c4.681,0,8.476-3.795,8.476-8.476v-0.062v-24.664
			h101.429v24.664c0,4.681,3.795,8.476,8.476,8.476s8.476-3.795,8.476-8.476v-24.664h107.239v24.664v0.062
			c0,4.681,3.795,8.476,8.476,8.476c4.681,0,8.476-3.795,8.476-8.476v-0.062v-24.664h51.245v185.255h-51.589v-24.726v-0.314
			c0-4.681-3.795-8.476-8.476-8.476s-8.476,3.795-8.476,8.476v0.314v24.726H261.235v-25.041c0-4.681-3.795-8.476-8.476-8.476
			c-4.681,0-8.476,3.795-8.476,8.476v25.041H142.51v-24.726v-0.314c0-4.681-3.795-8.476-8.476-8.476
			c-4.681,0-8.476,3.795-8.476,8.476v0.314v24.726H74.657V258.939h6.044c4.681,0,8.476-3.795,8.476-8.476s-3.795-8.476-8.476-8.476
			H56.138c-3.799,0-6.891-3.092-6.891-6.891v-20.121c0-3.799,3.092-6.891,6.891-6.891h398.708c3.799,0,6.891,3.092,6.891,6.891
			v20.119c0,3.799-3.091,6.891-6.891,6.891H445.146z"/>
	</g>
</g>
<g>
	<g>
		<path d="M413.887,364.357c-2.356-4.045-7.547-5.412-11.59-3.057l-25.475,14.843l-44.662-24.451l44.66-24.452l25.475,14.843
			c4.044,2.357,9.233,0.989,11.59-3.056c2.356-4.045,0.988-9.234-3.057-11.59l-29.612-17.255c-2.568-1.497-5.731-1.538-8.337-0.112
			l-58.369,31.957l-58.369-31.957c-2.586-1.415-5.722-1.387-8.279,0.078l-55.536,31.778l-55.536-31.778
			c-2.574-1.473-5.731-1.493-8.324-0.053L97.4,327.349c-4.091,2.274-5.566,7.434-3.293,11.526c2.273,4.092,7.433,5.568,11.525,3.294
			l26.888-14.933l42.741,24.456l-42.741,24.456l-26.888-14.933c-4.093-2.273-9.252-0.798-11.525,3.294
			c-2.273,4.092-0.798,9.252,3.294,11.525l31.065,17.253c1.28,0.711,2.698,1.066,4.116,1.066c1.453,0,2.907-0.374,4.21-1.119
			l55.535-31.778l55.536,31.778c1.303,0.746,2.755,1.119,4.21,1.119c1.4,0,2.802-0.347,4.071-1.041l58.369-31.957l58.369,31.957
			c2.606,1.427,5.768,1.384,8.337-0.111l29.612-17.253C414.875,373.591,416.244,368.402,413.887,364.357z M252.163,376.164
			l-42.77-24.473l42.77-24.473l44.698,24.473L252.163,376.164z"/>
	</g>
</g>
<g>
	<g>
		<path d="M212.412,93.017c-10.825-4.843-22.886-5.18-33.964-0.952c-2.67,1.019-5.203,2.281-7.583,3.751L59.41,45.953
			c-12.8-5.724-27.869,0.028-33.595,12.827c-2.773,6.2-2.967,13.109-0.545,19.454c2.423,6.346,7.172,11.368,13.372,14.141
			l85.35,38.181c1.124,0.503,2.3,0.741,3.456,0.741c3.24,0,6.333-1.868,7.742-5.017c1.911-4.273-0.002-9.287-4.276-11.198
			L45.564,76.9c-2.067-0.924-3.649-2.598-4.456-4.714c-0.808-2.116-0.744-4.418,0.182-6.485c1.909-4.266,6.931-6.184,11.198-4.275
			l105.154,47.046c-1.48,2.173-2.788,4.487-3.884,6.938c-9.997,22.345,0.049,48.657,22.393,58.654
			c5.871,2.626,12.014,3.87,18.065,3.87c16.978-0.001,33.219-9.79,40.589-26.263C244.802,129.326,234.757,103.014,212.412,93.017z
			 M219.33,144.748c-6.181,13.813-22.444,20.023-36.257,13.843c-13.812-6.179-20.022-22.445-13.843-36.257
			c2.994-6.691,8.414-11.816,15.261-14.43c3.182-1.215,6.494-1.821,9.799-1.821c3.811,0,7.614,0.805,11.197,2.408
			C219.3,114.67,225.51,130.934,219.33,144.748z"/>
	</g>
</g>
<g>
	<g>
		<path d="M486.199,15.056c-2.773-6.2-7.796-10.949-14.141-13.37s-13.255-2.229-19.454,0.545L341.152,52.093
			c-2.38-1.47-4.913-2.732-7.583-3.751c-11.077-4.23-23.141-3.891-33.964,0.95c-22.345,9.997-32.39,36.308-22.393,58.654
			c4.843,10.824,13.611,19.115,24.69,23.345c5.147,1.964,10.503,2.944,15.852,2.944c6.165,0,12.317-1.302,18.112-3.894
			c22.345-9.998,32.39-36.309,22.393-58.654c-1.096-2.451-2.404-4.763-3.884-6.937l105.154-47.045
			c2.068-0.926,4.369-0.99,6.485-0.182c2.114,0.807,3.789,2.39,4.713,4.456c1.909,4.266-0.009,9.289-4.275,11.198l-79.942,35.766
			c-4.273,1.912-6.187,6.925-4.275,11.198c1.409,3.148,4.501,5.017,7.742,5.017c1.156,0,2.333-0.238,3.457-0.741l79.942-35.766
			C486.172,42.926,491.925,27.856,486.199,15.056z M328.941,114.868c-6.689,2.994-14.148,3.203-20.995,0.588
			c-6.849-2.614-12.267-7.739-15.261-14.43c-6.18-13.812,0.029-30.078,13.843-36.257c3.584-1.604,7.385-2.408,11.197-2.408
			c3.306,0,6.618,0.606,9.798,1.819c2.307,0.88,4.433,2.068,6.377,3.482c0.556,0.591,1.187,1.094,1.873,1.497
			c2.955,2.578,5.362,5.765,7.012,9.452C348.965,92.422,342.754,108.687,328.941,114.868z"/>
	</g>
</g>
<g>
</g>
<g>
</g>
<g>
</g>
<g>
</g>
<g>
</g>
<g>
</g>
<g>
</g>
<g>
</g>
<g>
</g>
<g>
</g>
<g>
</g>
<g>
</g>
<g>
</g>
<g>
</g>
<g>
</g>
</svg>
