<?xml version="1.0" encoding="utf-8"?>
<!-- Generator: Adobe Illustrator 23.0.5, SVG Export Plug-In . SVG Version: 6.00 Build 0)  -->
<svg version="1.1" id="Layer_1" xmlns="http://www.w3.org/2000/svg" xmlns:xlink="http://www.w3.org/1999/xlink" x="0px" y="0px"
	 viewBox="0 0 9936 2419.2" style="enable-background:new 0 0 9936 2419.2;" xml:space="preserve">
<style type="text/css">
	.st0{fill:#455A64;}
	.st1{opacity:0.65;fill:#FFC107;}
	.st2{fill:#546E7A;}
	.st3{fill:#607D8B;}
	.st4{opacity:0.65;fill:#FFEB3B;}
</style>
<polygon class="st0" points="4400.07,687.26 4196.36,687.26 4301.57,605.88 "/>
<path class="st1" d="M4160.26,1261.27c8.45-9.61,19-16.34,31.64-20.19c15.87-6.56,32.28-10.88,49.24-12.97
	c19.39-4.08,39.04-5.88,58.95-5.4c26.08-0.14,51.82,2.71,77.22,8.56l30.97,9.81c10.51,3.68,19.82,9,27.95,15.94l-75.69-504.16
	h-128.28l-72.8,508.99C4159.72,1261.66,4159.98,1261.46,4160.26,1261.27z"/>
<path class="st2" d="M4364.43,687.26h-131.69v-92.28c0-1.74,1.41-3.16,3.16-3.16h125.5c1.67,0,3.03,1.36,3.03,3.03V687.26z"/>
<polygon class="st3" points="4380.71,762.73 4215.72,762.73 4232.74,687.26 4364.43,687.26 "/>
<ellipse class="st4" cx="4300.6" cy="1268.61" rx="139.4" ry="45.91"/>
<path class="st1" d="M4298.22,1266.32"/>
<path class="st1" d="M4298.22,1266.32"/>
</svg>
