<?xml version="1.0" encoding="utf-8"?>
<!-- Generator: Adobe Illustrator 23.0.5, SVG Export Plug-In . SVG Version: 6.00 Build 0)  -->
<svg version="1.1" id="Layer_1" xmlns="http://www.w3.org/2000/svg" xmlns:xlink="http://www.w3.org/1999/xlink" x="0px" y="0px"
	 viewBox="0 0 512 512" style="enable-background:new 0 0 512 512;" xml:space="preserve">
<style type="text/css">
	.st0{stroke:#000000;stroke-miterlimit:10;}
</style>
<g>
	<g>
		<g>
			<path d="M454.85,258.94c13.15,0,23.84-10.7,23.84-23.84v-20.12c0-13.15-10.7-23.84-23.84-23.84H56.14
				c-13.15,0-23.84,10.7-23.84,23.84v20.12c0,13.15,10.7,23.84,23.84,23.84h1.57v185.26h-1.57c-13.15,0-23.84,10.7-23.84,23.84
				v20.12c0,13.15,10.7,23.84,23.84,23.84h398.71c13.15,0,23.84-10.7,23.84-23.84v-20.12c0-13.15-10.7-23.84-23.84-23.84h-1.22
				V258.94H454.85z M454.85,461.15c3.8,0,6.89,3.09,6.89,6.89v20.12c0,3.8-3.09,6.89-6.89,6.89H56.14c-3.8,0-6.89-3.09-6.89-6.89
				v-20.12c0-3.8,3.09-6.89,6.89-6.89h10.04h378.96H454.85z M445.15,241.99H134.37c-4.68,0-8.48,3.79-8.48,8.48
				c0,0.09,0.01,0.17,0.01,0.25v32.89v0.06c0,4.68,3.8,8.48,8.48,8.48s8.48-3.8,8.48-8.48v-0.06v-24.66h101.43v24.66
				c0,4.68,3.79,8.48,8.48,8.48c4.68,0,8.48-3.8,8.48-8.48v-24.66h107.24v24.66v0.06c0,4.68,3.8,8.48,8.48,8.48s8.48-3.8,8.48-8.48
				v-0.06v-24.66h51.24v185.26h-51.59v-24.73v-0.31c0-4.68-3.8-8.48-8.48-8.48s-8.48,3.8-8.48,8.48v0.31v24.73H261.23v-25.04
				c0-4.68-3.8-8.48-8.48-8.48c-4.68,0-8.48,3.8-8.48,8.48v25.04H142.51v-24.73v-0.31c0-4.68-3.79-8.48-8.48-8.48
				s-8.48,3.8-8.48,8.48v0.31v24.73h-50.9V258.94h6.04c4.68,0,8.48-3.8,8.48-8.48s-3.79-8.48-8.48-8.48H56.14
				c-3.8,0-6.89-3.09-6.89-6.89v-20.12c0-3.8,3.09-6.89,6.89-6.89h398.71c3.8,0,6.89,3.09,6.89,6.89v20.12
				c0,3.8-3.09,6.89-6.89,6.89L445.15,241.99L445.15,241.99z"/>
		</g>
	</g>
	<g>
		<g>
			<path d="M413.89,364.36c-2.36-4.05-7.55-5.41-11.59-3.06l-25.48,14.84l-44.66-24.45l44.66-24.45l25.48,14.84
				c4.04,2.36,9.23,0.99,11.59-3.06c2.36-4.05,0.99-9.23-3.06-11.59l-29.61-17.26c-2.57-1.5-5.73-1.54-8.34-0.11l-58.37,31.96
				l-58.37-31.96c-2.59-1.42-5.72-1.39-8.28,0.08l-55.54,31.78l-55.54-31.78c-2.57-1.47-5.73-1.49-8.32-0.05L97.4,327.35
				c-4.09,2.27-5.57,7.43-3.29,11.53s7.43,5.57,11.53,3.29l26.89-14.93l42.74,24.46l-42.74,24.46l-26.89-14.93
				c-4.09-2.27-9.25-0.8-11.53,3.29s-0.8,9.25,3.29,11.52l31.07,17.25c1.28,0.71,2.7,1.07,4.12,1.07c1.45,0,2.91-0.37,4.21-1.12
				l55.54-31.78l55.54,31.78c1.3,0.75,2.76,1.12,4.21,1.12c1.4,0,2.8-0.35,4.07-1.04l58.37-31.96l58.37,31.96
				c2.61,1.43,5.77,1.38,8.34-0.11l29.61-17.25C414.88,373.59,416.24,368.4,413.89,364.36z M252.16,376.16l-42.77-24.47l42.77-24.47
				l44.7,24.47L252.16,376.16z"/>
		</g>
	</g>
	<g>
		<g>
			<path d="M212.41,93.02c-10.82-4.84-22.89-5.18-33.96-0.95c-2.67,1.02-5.2,2.28-7.58,3.75L59.41,45.95
				c-12.8-5.72-27.87,0.03-33.6,12.83c-2.77,6.2-2.97,13.11-0.55,19.45c2.42,6.35,7.17,11.37,13.37,14.14l85.35,38.18
				c1.12,0.5,2.3,0.74,3.46,0.74c3.24,0,6.33-1.87,7.74-5.02c1.91-4.27,0-9.29-4.28-11.2L45.56,76.9c-2.07-0.92-3.65-2.6-4.46-4.71
				c-0.81-2.12-0.74-4.42,0.18-6.49c1.91-4.27,6.93-6.18,11.2-4.27l105.15,47.05c-1.48,2.17-2.79,4.49-3.88,6.94
				c-10,22.35,0.05,48.66,22.39,58.65c5.87,2.63,12.01,3.87,18.07,3.87c16.98,0,33.22-9.79,40.59-26.26
				C244.8,129.33,234.76,103.01,212.41,93.02z M219.33,144.75c-6.18,13.81-22.44,20.02-36.26,13.84
				c-13.81-6.18-20.02-22.45-13.84-36.26c2.99-6.69,8.41-11.82,15.26-14.43c3.18-1.21,6.49-1.82,9.8-1.82
				c3.81,0,7.61,0.81,11.2,2.41C219.3,114.67,225.51,130.93,219.33,144.75z"/>
		</g>
	</g>
	<g>
		<g>
			<path d="M486.2,15.06c-2.77-6.2-7.8-10.95-14.14-13.37S458.8-0.54,452.6,2.23L341.15,52.09c-2.38-1.47-4.91-2.73-7.58-3.75
				c-11.08-4.23-23.14-3.89-33.96,0.95c-22.35,10-32.39,36.31-22.39,58.65c4.84,10.82,13.61,19.11,24.69,23.35
				c5.15,1.96,10.5,2.94,15.85,2.94c6.17,0,12.32-1.3,18.11-3.89c22.35-10,32.39-36.31,22.39-58.65c-1.1-2.45-2.4-4.76-3.88-6.94
				l105.15-47.04c2.07-0.93,4.37-0.99,6.48-0.18c2.11,0.81,3.79,2.39,4.71,4.46c1.91,4.27-0.01,9.29-4.27,11.2l-79.94,35.77
				c-4.27,1.91-6.19,6.93-4.27,11.2c1.41,3.15,4.5,5.02,7.74,5.02c1.16,0,2.33-0.24,3.46-0.74l79.94-35.77
				C486.17,42.93,491.92,27.86,486.2,15.06z M328.94,114.87c-6.69,2.99-14.15,3.2-20.99,0.59c-6.85-2.61-12.27-7.74-15.26-14.43
				c-6.18-13.81,0.03-30.08,13.84-36.26c3.58-1.6,7.39-2.41,11.2-2.41c3.31,0,6.62,0.61,9.8,1.82c2.31,0.88,4.43,2.07,6.38,3.48
				c0.56,0.59,1.19,1.09,1.87,1.5c2.95,2.58,5.36,5.76,7.01,9.45C348.96,92.42,342.75,108.69,328.94,114.87z"/>
		</g>
	</g>
	<circle class="st0" cx="317.73" cy="89.82" r="12.1"/>
	<circle class="st0" cx="194.28" cy="133.53" r="12.1"/>
	<ellipse class="st0" cx="176.43" cy="67.63" rx="45.3" ry="5.27"/>
	
		<ellipse transform="matrix(0.9334 -0.3589 0.3589 0.9334 6.2639 107.4699)" class="st0" cx="292.59" cy="36.86" rx="45.3" ry="5.27"/>
</g>
</svg>
